<?xml version="1.0" encoding="UTF-8" standalone="no"?>
<svg width="1800px" height="1791px" viewBox="0 0 1800 1791" version="1.1" xmlns="http://www.w3.org/2000/svg" xmlns:xlink="http://www.w3.org/1999/xlink">
    <!-- Generator: Sketch 47.1 (45422) - http://www.bohemiancoding.com/sketch -->
    <title>v2 copy</title>
    <desc>Created with Sketch.</desc>
    <defs></defs>
    <g id="Page-1" stroke="none" stroke-width="1" fill="none" fill-rule="evenodd">
        <g id="v2-copy">
            <g id="new-ring-4-copy" transform="translate(468.000000, 468.000000)" stroke="#FFFFFF">
                <circle id="c3-copy-12" cx="854.387424" cy="461.548717" r="8.5"></circle>
                <circle id="c3-copy-13" cx="854.387424" cy="461.548717" r="8.5"></circle>
                <circle id="c3-copy-7" cx="67.7808875" cy="662.777401" r="8.5"></circle>
                <circle id="c3-copy-7" cx="34.6667812" cy="261.735494" r="8.5"></circle>
                <path d="M855.264975,453.293956 C855.752722,444.924931 856,436.491343 856,428 C856,191.622127 664.377873,0 428,0 C252.673272,0 103.349698,102.947357 37.1981683,253.859629 M31.0103264,269.147226 C10.8993425,318.76204 0,371.170411 0,428 C0,512.160435 22.6025911,589.391844 64.5562162,655.576616 M73.7790877,668.990737 C150.629397,783.250456 279.947482,856 428,856 C651.611734,856 834.80168,689.276236 853.976595,470.642936" id="Combined-Shape-Copy-2" fill-rule="nonzero"></path>
            </g>
            <g id="new-ring-4" transform="translate(897.500000, 902.000000) rotate(-25.000000) translate(-897.500000, -902.000000) translate(284.000000, 292.000000)" stroke="#FFFFFF">
                <circle id="c3-copy-7" cx="1218" cy="655" r="8.5"></circle>
                <circle id="c3-copy-7" cx="99" cy="943" r="8.5"></circle>
                <circle id="c3-copy-7" cx="48" cy="373" r="8.5"></circle>
                <path d="M1218.95242,646.049797 L1218.95242,646.049797 C1219.64757,634.121981 1220,622.102147 1220,610 C1220,273.106303 946.893697,0 610,0 C360.118448,0 145.329653,150.249951 51.0482673,365.335199 M44.4486697,380.98339 C15.7858188,451.696091 0,529.004558 0,610 C0,729.948283 34.6205548,841.810503 94.4142729,936.139267 M103.47527,950.013689 C213.004916,1112.86048 398.990571,1220 610,1220 C928.698966,1220 1190.31446,975.596591 1217.64319,663.993057" id="Combined-Shape-Copy-2" fill-rule="nonzero"></path>
            </g>
            <g id="lines" transform="translate(-2.000000, 0.000000)">
                <rect id="Rectangle-2" fill="#FFFFFF" x="894" y="0" width="1" height="800"></rect>
                <rect id="Rectangle-2-Copy" fill="#FFFFFF" transform="translate(1354.500000, 690.000000) rotate(-296.000000) translate(-1354.500000, -690.000000) " x="1354" y="290" width="1" height="800"></rect>
                <g id="Group-2" transform="translate(900.000000, 60.000000)" fill="#F1F8FF">
                    <rect id="Rectangle-Copy" transform="translate(180.500000, 374.000000) rotate(-339.000000) translate(-180.500000, -374.000000) " x="180" y="-26" width="1" height="800"></rect>
                    <rect id="Rectangle-Copy-2" transform="translate(341.500000, 475.000000) rotate(-318.000000) translate(-341.500000, -475.000000) " x="341" y="75" width="1" height="800"></rect>
                    <rect id="Rectangle-Copy-4" transform="translate(500.500000, 812.000000) rotate(-275.000000) translate(-500.500000, -812.000000) " x="500" y="412" width="1" height="800"></rect>
                    <rect id="Rectangle-Copy-5" transform="translate(476.500000, 997.000000) rotate(-254.000000) translate(-476.500000, -997.000000) " x="476" y="597" width="1" height="800"></rect>
                    <rect id="Rectangle-Copy-6" transform="translate(387.500000, 1159.000000) rotate(-233.000000) translate(-387.500000, -1159.000000) " x="387" y="759" width="1" height="800"></rect>
                    <rect id="Rectangle-Copy-7" transform="translate(247.500000, 1277.000000) rotate(-212.000000) translate(-247.500000, -1277.000000) " x="247" y="877" width="1" height="800"></rect>
                    <rect id="Rectangle-Copy-8" transform="translate(77.500000, 1338.000000) rotate(-191.000000) translate(-77.500000, -1338.000000) " x="77" y="938" width="1" height="800"></rect>
                </g>
                <g id="Group-2-Copy" transform="translate(437.500000, 926.000000) scale(-1, 1) translate(-437.500000, -926.000000) translate(0.000000, 64.000000)" fill="#F1F8FF">
                    <rect id="Rectangle-Copy" transform="translate(165.500000, 374.000000) rotate(-339.000000) translate(-165.500000, -374.000000) " x="165" y="-26" width="1" height="800"></rect>
                    <rect id="Rectangle-Copy-2" transform="translate(321.500000, 476.000000) rotate(-318.000000) translate(-321.500000, -476.000000) " x="321" y="76" width="1" height="800"></rect>
                    <rect id="Rectangle-Copy-3" transform="translate(429.500000, 626.000000) rotate(-296.000000) translate(-429.500000, -626.000000) " x="429" y="226" width="1" height="800"></rect>
                    <rect id="Rectangle-Copy-4" transform="translate(475.500000, 803.000000) rotate(-275.000000) translate(-475.500000, -803.000000) " x="475" y="403" width="1" height="800"></rect>
                    <rect id="Rectangle-Copy-5" transform="translate(457.500000, 983.000000) rotate(-254.000000) translate(-457.500000, -983.000000) " x="457" y="583" width="1" height="800"></rect>
                    <rect id="Rectangle-Copy-6" transform="translate(375.500000, 1142.000000) rotate(-233.000000) translate(-375.500000, -1142.000000) " x="375" y="742" width="1" height="800"></rect>
                    <path d="M306.002206,1365.56831 L454.043682,1602.4842 L454.89173,1601.95428 L306.633662,1364.69177 C306.440528,1364.99686 306.229554,1365.28952 306.002206,1365.56831 Z M296.973285,1351.11902 L30.1082703,924.045721 L30.9563184,923.515802 L298.039121,1350.93763 C297.676956,1350.97704 297.321244,1351.03794 296.973285,1351.11902 Z" id="Combined-Shape"></path>
                    <rect id="Rectangle-Copy-8" transform="translate(77.500000, 1331.000000) rotate(-191.000000) translate(-77.500000, -1331.000000) " x="77" y="931" width="1" height="800"></rect>
                </g>
            </g>
            <circle id="Oval" stroke="#FFFFFF" cx="898" cy="902" r="102"></circle>
            <g id="outter-ring" transform="translate(897.500000, 902.000000) rotate(40.000000) translate(-897.500000, -902.000000) translate(49.000000, 54.000000)" stroke="#FFFFFF">
                <path d="M743.181217,10.8058255 C326.860806,63.7617972 5,419.293589 5,850 C5,879.033308 6.46250869,907.725028 9.31787332,936.005509 M11.2928227,953.705326 L11.2928227,953.705326 C62.4224645,1372.01719 418.876112,1696 851,1696 C1074.01902,1696 1276.88259,1609.70429 1428.02073,1468.68286 M1441.01201,1456.30245 C1598.91974,1302.61136 1697,1087.75961 1697,850 C1697,382.767102 1318.2329,4 851,4 C820.597461,4 790.569488,5.60370736 760.996061,8.73114266 C760.998681,8.82044149 761,8.9100667 761,9" id="Combined-Shape" fill-rule="nonzero"></path>
                <g id="Group-3">
                    <circle id="c3-copy-11" cx="752" cy="9" r="8.5"></circle>
                    <circle id="c3-copy-10" cx="1435" cy="1463" r="8.5"></circle>
                    <circle id="c3-copy-9" cx="9" cy="945" r="8.5"></circle>
                </g>
            </g>
            <g id="outter-ring-copy" transform="translate(900.000000, 895.500000) rotate(40.000000) translate(-900.000000, -895.500000) translate(578.000000, 573.000000)" stroke="#FFFFFF" fill-rule="nonzero">
                <path d="M275.542122,4.03434497 C117.330524,24.190164 1,159.066827 1,323 C1,334.050502 0.487399966,341.950246 1.57250603,352.714212 M4.31992018,369.989967 C23.7503928,529.205593 158.282707,645 322.5,645 C407.252498,645 480.172449,615.8321 537.608515,562.157275 M549.988483,550.463842 C609.997155,491.96676 644,413.494794 644,323 C644,145.164311 500.059547,1 322.5,1 C310.946317,1 305.465311,0.219839928 294.226709,1.41018764" id="Combined-Shape"></path>
            </g>
            <circle id="c3-copy-13" stroke="#FFFFFF" cx="919.582727" cy="1216.04857" r="8.5"></circle>
            <circle id="c3-copy-7" stroke="#FFFFFF" cx="629.862084" cy="720.235347" r="8.5"></circle>
            <circle id="c3-copy-7" stroke="#FFFFFF" cx="1077" cy="627" r="8.5"></circle>
        </g>
    </g>
</svg>